<svg width="137" height="106" fill="none" xmlns="http://www.w3.org/2000/svg"><path d="M97.853 37.888c-1.991-.874-4.014-1.683-6.021-2.573-.324-.146-.599-.47-.842-.76-.517-.648-.21-1.28.081-1.943.858-1.942 1.7-3.9 2.477-5.875.501-1.31.162-2.444-.907-3.415-1.294-1.181-2.573-2.395-3.755-3.674-1.197-1.31-2.557-1.586-4.16-.987-1.99.744-3.98 1.505-5.955 2.282-1.133.437-2.12.016-2.573-1.1-.858-2.056-1.7-4.128-2.638-6.15-.567-1.247-1.603-1.797-3.01-1.749-1.781.049-3.561.097-5.342-.016-1.829-.113-2.994.68-3.706 2.25a589.755 589.755 0 00-2.492 5.616c-.502 1.181-1.506 1.554-2.703 1.036-2.056-.858-4.128-1.716-6.215-2.509-1.182-.453-2.282-.21-3.205.696l-4.564 4.467c-.712.696-1.02 1.586-.696 2.509.81 2.298 1.683 4.58 2.573 6.862.421 1.084.049 1.975-1.035 2.395-2.17.874-4.354 1.732-6.49 2.687-1.15.518-1.684 1.489-1.651 2.8.048 1.813.097 3.625-.017 5.422-.113 1.813.697 2.93 2.25 3.609 1.975.858 3.965 1.7 5.94 2.525.971.404 1.376 1.36.939 2.314-.195.421-.389.826-.567 1.246-.712 1.764-1.473 3.529-2.12 5.309-.372 1.003-.162 1.974.631 2.751 1.473 1.457 2.962 2.898 4.435 4.37.971.971 2.104 1.279 3.399.81 2.071-.745 4.143-1.538 6.198-2.315 1.408-.55 2.282-.194 2.816 1.182.26.68.502 1.36.794 2.039.598 1.36 1.181 2.719 1.828 4.046.502 1.004 1.311 1.618 2.493 1.618 2.233 0 4.483.049 6.716-.032.616-.032 1.295-.372 1.78-.777.486-.42.859-1.052 1.134-1.65.858-1.83 1.635-3.69 2.444-5.536.404-.922 1.489-1.327 2.427-.939 2.266.907 4.532 1.83 6.83 2.671.971.356 1.894.049 2.622-.647 1.603-1.522 3.205-3.043 4.726-4.645.453-.47.648-1.182.89-1.635-.178-.793-.226-1.376-.42-1.894a252.535 252.535 0 00-2.315-5.778c-.47-1.133-.08-2.007 1.036-2.46 2.072-.825 4.16-1.634 6.199-2.525 1.31-.566 1.942-1.586 1.877-3.075-.065-1.78-.113-3.56 0-5.34.178-1.732-.599-2.833-2.136-3.513zm-1.683 9.307c-2.266.857-4.516 1.764-6.782 2.605-.502.178-.793.437-.987.939-.42 1.133-1.295 2.233-1.279 3.35 0 1.117.858 2.218 1.327 3.334.55 1.344 1.069 2.703 1.635 4.046.162.405.097.68-.227.988-1.149 1.1-2.298 2.2-3.398 3.334-.356.372-.696.404-1.15.21-2.2-.939-4.418-1.861-6.603-2.816-.47-.21-.874-.275-1.36-.032-1.116.518-2.54.712-3.35 1.521-.809.81-1.02 2.201-1.505 3.334-.534 1.23-1.1 2.46-1.634 3.69-.227.534-.55.76-1.166.745a84.74 84.74 0 00-4.531 0c-.567.016-.907-.162-1.1-.68-.875-2.201-1.749-4.402-2.671-6.587-.146-.34-.502-.664-.826-.858-.566-.308-1.23-.437-1.78-.76-1.182-.713-2.266-.535-3.48.016-1.877.857-3.852 1.52-5.778 2.282-.437.178-.712.08-1.052-.26a107.024 107.024 0 00-3.35-3.285c-.372-.356-.437-.663-.227-1.133.94-2.088 1.846-4.192 2.8-6.263.276-.583.421-1.085.049-1.667a2.674 2.674 0 01-.372-.89c-.405-1.894-1.684-2.784-3.464-3.35-1.683-.535-3.27-1.36-4.92-2.04-.486-.194-.68-.486-.664-1.036a84.527 84.527 0 000-4.532c-.016-.517.162-.793.632-.97 2.265-.858 4.531-1.716 6.765-2.623.372-.145.744-.501.922-.857.453-.907.842-1.861 1.182-2.833.13-.356.113-.841-.016-1.197-.89-2.25-1.845-4.484-2.736-6.733-.097-.275-.016-.76.178-.971 1.166-1.198 2.38-2.347 3.577-3.512.114-.114.26-.178.373-.26.259.098.501.163.712.26 2.185.922 4.353 1.86 6.538 2.751.373.146.89.162 1.279.033 1.165-.405 2.54-.664 3.366-1.473.793-.777.988-2.153 1.473-3.27.583-1.327 1.198-2.654 1.78-3.981.178-.42.454-.583.94-.583 1.585.033 3.188.033 4.774 0 .485-.016.744.162.922.583.874 2.169 1.764 4.337 2.606 6.522.227.6.55 1.02 1.181 1.166.13.032.276.064.373.145 1.958 1.279 3.868 1.036 5.875-.032 1.44-.76 3.059-1.198 4.58-1.797.404-.161.663-.097.971.227 1.117 1.133 2.25 2.25 3.415 3.334.356.34.437.615.243 1.036-.987 2.185-1.942 4.37-2.93 6.555-.21.453-.259.809-.032 1.278.453.923.777 1.894 1.23 2.816.162.34.518.68.858.826 2.25.97 4.515 1.893 6.781 2.816.47.194.631.47.615.971a109.457 109.457 0 000 4.613c.016.518-.13.793-.582.955z" fill="#333A40"/><path d="M67.555 29.44c-7.866-.016-14.372 6.506-14.372 14.388 0 7.85 6.393 14.388 14.064 14.405 8.222 0 14.68-6.296 14.696-14.34.016-7.93-6.474-14.453-14.388-14.453zM78.64 43.958c-.194 6.296-5.244 11.2-11.378 10.99-6.101-.211-11.005-5.083-10.827-11.476.194-6.377 5.292-10.795 11.2-10.714 6.28.097 11.2 5.227 11.005 11.2z" fill="#333A40"/><path d="M121.579 0H15.003C6.733 0 0 6.733 0 15.003v57.359c0 8.27 6.733 15.003 15.003 15.003h51.095v10.973c0 .89.729 1.619 1.619 1.619s1.618-.729 1.618-1.619V87.365h52.244c8.271 0 15.004-6.733 15.004-15.003V15.003C136.583 6.733 129.85 0 121.579 0zm11.767 72.362c0 6.49-5.276 11.766-11.767 11.766H15.003c-6.49 0-11.766-5.276-11.766-11.766V15.003c0-6.49 5.276-11.766 11.766-11.766H121.58c6.491 0 11.767 5.276 11.767 11.766v57.359zM96.331 102.449h-57.52c-.89 0-1.619.728-1.619 1.619 0 .89.729 1.618 1.619 1.618h57.52c.89 0 1.619-.728 1.619-1.618 0-.891-.729-1.619-1.619-1.619z" fill="#333A40"/></svg>