<svg width="116" height="100" viewBox="0 0 116 100" fill="none" xmlns="http://www.w3.org/2000/svg">
<path d="M83.0525 36.3024C83.0525 43.7814 80.6122 50.294 75.3952 55.7142C71.7348 59.5377 67.233 61.9747 61.9318 62.731C51.3293 64.2016 43.1251 60.0839 36.8141 51.7226C33.5745 47.4369 31.7232 42.5629 31.3446 37.2268C30.5452 26.6806 33.9531 17.815 42.7885 11.5965C47.3324 8.40327 52.5074 7.14277 58.1031 7.60495C64.8348 8.15117 70.4305 11.0923 75.0165 15.8823C79.4342 20.5041 81.8744 26.0503 82.8421 32.3108C82.9263 32.9831 83.0104 33.6554 83.0104 34.3276C83.0946 34.9999 83.0525 35.6722 83.0525 36.3024Z" fill="#333A40"/>
<path d="M4.29148 78.0252C5.97441 78.0252 7.53111 78.0252 9.08782 78.0252C11.1494 78.0252 13.211 78.0252 15.2305 78.8235C22.2567 81.6807 24.2342 90.9244 19.0592 96.4706C13.4634 102.437 3.53416 100.546 0.631117 92.605C0.252459 91.5546 0.0420934 90.3781 0.0420934 89.2857C-0.0420529 82.7731 2.02404e-05 76.3025 2.02404e-05 69.7899C2.02404e-05 69.6218 0.0420934 69.4538 0.0420934 69.2017C1.43051 69.2017 2.81892 69.2017 4.29148 69.2017C4.29148 72.1008 4.29148 75 4.29148 78.0252ZM4.33355 82.2269C4.33355 84.6638 4.20733 86.9748 4.37563 89.2437C4.67014 93.4454 7.57319 95.8823 11.7805 95.5882C15.3988 95.3361 17.9653 92.1008 17.7549 88.6134C17.5025 84.7479 14.5573 82.2269 10.6866 82.2269C9.21404 82.2269 7.78355 82.2269 6.31099 82.2269C5.63782 82.2269 5.0488 82.2269 4.33355 82.2269Z" fill="#333A40"/>
<path d="M88.4797 69.2017C89.8681 69.2017 91.1724 69.2017 92.6029 69.2017C92.6029 69.4958 92.645 69.7899 92.645 70.084C92.645 72.437 92.645 74.7899 92.645 77.1849C92.645 77.8571 92.8133 78.0672 93.5285 78.0672C95.5059 78.0252 97.5254 78.1092 99.5029 78.0672C105.225 77.9412 110.568 83.0252 110.358 89.2437C110.147 95.2521 105.309 100.042 99.3346 100C93.4444 100 88.4376 95.126 88.4376 89.2437C88.3956 82.8151 88.4376 76.3865 88.4376 69.958C88.4376 69.7059 88.4797 69.4958 88.4797 69.2017ZM92.645 86.1344C92.645 87.0588 92.6029 87.9411 92.645 88.8655C92.7291 91.6386 93.9072 93.7395 96.4315 94.958C98.7035 96.0504 100.933 95.9243 103.079 94.5378C105.267 93.1512 106.487 90.2521 105.982 87.7311C105.393 84.958 103.247 82.689 100.555 82.4369C98.1145 82.2269 95.6742 82.3109 93.234 82.2689C93.0236 82.2689 92.687 82.647 92.687 82.8991C92.6029 83.9916 92.645 85.042 92.645 86.1344Z" fill="#333A40"/>
<path d="M81.9164 18.6973C81.7481 14.3276 85.2402 9.57966 91.1304 9.49562C96.053 9.41159 100.134 13.6133 100.302 18.4452C100.429 23.1091 96.8944 27.7309 91.467 27.899C85.703 28.1091 81.706 23.4452 81.9164 18.6973Z" fill="#333A40"/>
<path d="M32.6487 52.3529C32.6487 57.3949 28.5676 61.4705 23.5609 61.4705C18.3859 61.4705 14.2207 57.3949 14.2628 52.3529C14.3048 47.1008 18.3439 43.0671 23.603 43.0671C28.5676 43.1092 32.6487 47.2688 32.6487 52.3529Z" fill="#333A40"/>
<path d="M43.672 82.857C39.633 86.8907 35.636 90.8823 31.5549 94.9159C33.2379 95.7982 34.9629 96.0083 36.5617 95.252C38.0763 94.5377 39.3806 93.4033 40.811 92.4369C41.6104 93.2772 42.5781 94.2436 43.5458 95.21C40.811 98.9495 36.2251 100.798 31.6391 99.5797C26.8428 98.3192 23.561 94.1596 23.4769 89.1596C23.3928 84.3276 26.2537 80.0419 31.1342 78.5293C35.636 77.0587 40.3903 78.5713 43.672 82.857ZM28.4415 91.8066C31.3867 88.8234 34.2897 85.8823 37.1507 82.9411C34.8787 81.5965 31.8074 82.1007 29.6617 84.2016C27.6421 86.2184 27.0952 89.4117 28.4415 91.8066Z" fill="#333A40"/>
<path d="M65.0873 77.8992C66.5178 77.8992 67.8641 77.8992 69.2946 77.8992C69.2946 78.1513 69.3367 78.4034 69.3367 78.6135C69.3367 82.1009 69.3367 85.5462 69.3788 89.0336C69.4629 92.6891 72.1135 95.4622 75.7739 95.5882C79.3501 95.7143 82.2952 93.2353 82.6318 89.6639C82.8422 87.479 82.758 85.2521 82.8001 83.0252C82.8001 81.3446 82.8001 79.6639 82.8001 77.9412C84.1885 77.9412 85.5349 77.9412 87.0074 77.9412C87.0074 78.2353 87.0074 78.5714 87.0074 78.8656C87.0074 82.2689 87.0074 85.6303 87.0074 89.0336C87.0074 94.8319 82.1269 99.7059 76.3208 99.874C71.1038 100 67.0648 96.7227 65.5922 92.437C65.2556 91.4706 65.0452 90.3782 65.0032 89.3277C64.919 85.6723 64.9611 81.9748 65.0032 78.3193C65.0032 78.1933 65.0452 78.1093 65.0873 77.8992Z" fill="#333A40"/>
<path d="M89.9945 31.3024C94.5805 32.2688 97.3994 30.0419 99.7975 26.8066C99.0823 31.8066 98.0305 36.5966 96.3055 41.3024C94.7908 45.4621 92.8134 49.4117 89.8683 52.773C88.1853 54.7058 86.2079 56.3444 84.3988 58.1512C84.2305 58.3192 84.0201 58.4033 83.7256 58.4873C86.6286 54.5797 88.6481 50.252 89.8683 45.5882C91.0884 40.8823 91.5091 36.1764 89.9945 31.3024Z" fill="#333A40"/>
<path d="M30.7974 12.1848C25.4121 20.4201 22.2566 29.1176 24.5706 39.2436C20.195 38.2773 17.334 40.5041 14.8938 43.8235C15.4407 39.6218 16.3243 35.5882 17.5865 31.6386C19.2273 26.5546 21.4572 21.8067 24.9072 17.689C26.6322 15.6302 28.5676 13.7394 30.7974 12.1848Z" fill="#333A40"/>
<path d="M26.0854 63.7394C31.008 62.899 31.008 62.899 34.2056 59.4116C41.4842 66.8066 50.6982 68.4873 60.4592 68.3192C58.608 69.9999 48.5525 71.1763 42.8726 70.294C36.8982 69.2856 31.3867 66.9747 26.0854 63.7394Z" fill="#333A40"/>
<path d="M88.48 6.89065C85.072 7.10073 82.2952 8.31922 80.5281 11.3444C75.858 6.17636 69.8836 3.90746 63.3623 2.85704C60.3751 2.39485 57.3038 2.35283 54.4849 2.10073C56.4623 0.462078 66.8123 -0.588342 71.8611 0.294011C77.8355 1.38645 83.305 3.69737 88.48 6.89065Z" fill="#333A40"/>
<path d="M111.915 77.8992C113.303 77.8992 114.607 77.8992 115.996 77.8992C115.996 85.2101 115.996 92.479 115.996 99.7899C114.649 99.7899 113.303 99.7899 111.915 99.7899C111.915 92.521 111.915 85.2521 111.915 77.8992Z" fill="#333A40"/>
<path d="M55.4944 92.6471C57.5139 92.6891 59.1127 94.3278 59.0706 96.3026C59.0286 98.4034 57.3877 100 55.2841 99.958C53.1804 99.916 51.6658 98.2774 51.7499 96.0925C51.8341 94.0757 53.4328 92.6051 55.4944 92.6471Z" fill="#333A40"/>
</svg>
