<svg width="180" height="106" fill="none" xmlns="http://www.w3.org/2000/svg"><path d="M177.176 37.818c-3.234-9.163-8.788-16.59-16.709-22.234-7.471-5.315-15.81-8.1-24.958-8.414-5.959-.21-11.738.748-17.352 2.83-5.54 2.05-10.496 5.045-14.853 9.028-6.303 5.764-10.704 12.74-13.1 20.96-1.138 3.893-1.827 7.86-1.827 11.918 0 5.75-.853 11.334-3.054 16.649-4.746 11.498-12.906 19.613-24.479 24.12-8.564 3.338-17.383 3.743-26.26 1.317-10.481-2.874-18.746-8.923-24.66-18.011-5.48-8.414-7.65-17.697-6.617-27.713.524-5.136 1.946-10.031 4.297-14.598 4.401-8.534 10.884-15.002 19.553-19.194 8.908-4.342 18.236-5.36 27.878-3.249 1.317.285 2.605.674 3.923 1.078a1.525 1.525 0 001.766-.688 1.537 1.537 0 00-.838-2.216 44.368 44.368 0 00-9.178-1.977c-6.154-.673-12.187-.15-18.116 1.632-4.387 1.318-8.52 3.204-12.307 5.81-9.867 6.737-16.26 15.915-19.06 27.533C-.196 48.268-.345 54.197.598 60.14c1.242 7.71 4.237 14.672 9.073 20.78 7.396 9.328 16.993 15.048 28.776 16.994 6.663 1.093 13.265.704 19.763-1.153 7.995-2.29 14.897-6.423 20.586-12.487 8.055-8.564 12.307-18.76 12.517-30.527.105-6.034.943-11.888 3.369-17.413 5.135-11.708 13.729-19.748 25.841-23.97 4.147-1.452 8.459-2.14 12.846-2.2 7.606-.105 14.792 1.631 21.395 5.42 11.199 6.407 18.191 15.974 21.021 28.536 1.033 4.566 1.183 9.237.569 13.909-1.318 10.016-5.51 18.655-12.906 25.557-11.244 10.495-24.509 13.939-39.526 10.66-.883-.195-1.767-.464-2.65-.734-.779-.24-1.422.225-1.422 1.048v.3c0 .838.539 1.587 1.347 1.811a44.47 44.47 0 008.279 1.602c7.022.66 13.88-.164 20.497-2.65 16.829-6.288 28.701-21.949 29.675-40.484.314-5.914-.495-11.708-2.471-17.322z" fill="#333A40"/><path d="M67.671 13.338a.86.86 0 01.105.884.874.874 0 01-.704.539l-14.208 1.856a1.49 1.49 0 00-1.288 1.677 1.511 1.511 0 001.483 1.303c.06 0 .134 0 .194-.015l14.209-1.857c1.392-.18 2.53-1.063 3.084-2.35a3.87 3.87 0 00-.464-3.848L61.892.597a1.502 1.502 0 00-2.096-.3 1.502 1.502 0 00-.3 2.097l8.175 10.944zM113.291 62.91c-.674 1.453-1.348 2.89-1.946 4.358-.315.778-.509 1.602-.764 2.41.06.823.449 1.407.988 1.931 1.288 1.258 2.59 2.486 3.848 3.773.928.959 1.991 1.288 3.249.824a191.85 191.85 0 005.794-2.186c1.153-.45 2.051-.075 2.515 1.093.704 1.752 1.408 3.518 2.171 5.24.584 1.318 1.557 2.036 3.114 1.946 1.722-.09 3.444-.06 5.166-.015 1.287.045 2.246-.434 2.799-1.587a210.135 210.135 0 002.576-5.63c.479-1.077 1.377-1.451 2.485-.987 1.901.793 3.818 1.572 5.749 2.32 1.183.45 2.231.15 3.144-.748 1.288-1.288 2.605-2.546 3.908-3.818.764-.734 1.153-1.617.794-2.635-.749-2.111-1.572-4.192-2.381-6.273-.374-.944 0-1.812.958-2.186 1.947-.764 3.893-1.528 5.809-2.366 1.063-.464 1.737-1.317 1.752-2.56 0-1.722-.075-3.444.03-5.15.09-1.662-.614-2.725-2.066-3.354a285.006 285.006 0 00-5.3-2.246c-1.258-.524-1.572-1.258-.988-2.485.224-.48.464-.944.658-1.423.599-1.497 1.213-2.994 1.737-4.521.33-.958.03-1.812-.689-2.515-1.272-1.228-2.575-2.426-3.787-3.728-1.078-1.168-2.306-1.393-3.728-.869a365.233 365.233 0 00-5.645 2.171c-.928.36-1.841-.03-2.231-.943-.823-1.917-1.617-3.848-2.47-5.764-.524-1.153-1.467-1.677-2.755-1.662-1.752.03-3.488.06-5.24 0-1.378-.045-2.381.494-2.965 1.722a250.289 250.289 0 00-2.575 5.719c-.359.808-1.377 1.228-2.186.898-1.976-.808-3.952-1.632-5.959-2.395-1.197-.464-2.23-.15-3.129.748-1.182 1.183-2.335 2.396-3.608 3.489-1.258 1.093-1.482 2.35-.898 3.818.703 1.811 1.437 3.608 2.156 5.404.389.974.015 1.812-.988 2.201a191.332 191.332 0 00-5.735 2.32c-1.242.54-1.826 1.513-1.766 2.92.06 1.573.104 3.145-.015 4.717-.12 1.751.628 2.86 2.171 3.518 1.811.764 3.623 1.542 5.434 2.306.914.374 1.243 1.272.809 2.2zm-5.375-8.324c.075-1.317.045-2.65.015-3.967-.015-.51.15-.779.614-.944 2.051-.763 4.087-1.572 6.138-2.335.479-.18.794-.39.973-.899.39-1.078 1.168-2.126 1.168-3.174 0-1.033-.808-2.05-1.242-3.084a104.628 104.628 0 01-1.468-3.758c-.074-.21.015-.584.165-.748 1.048-1.078 2.126-2.096 3.189-3.16.3-.299.569-.389.973-.21 2.051.884 4.118 1.768 6.199 2.606.374.15.868.15 1.242.03.884-.27 1.737-.629 2.561-1.033.359-.18.718-.524.883-.883a195.998 195.998 0 002.47-5.765c.27-.658.644-.943 1.393-.913 1.317.06 2.65.045 3.967 0 .539-.015.824.195 1.018.659.794 1.991 1.617 3.967 2.381 5.959.195.494.449.838.973 1.003.494.15 1.003.33 1.452.584 1.138.688 2.186.524 3.354-.015 1.722-.794 3.518-1.393 5.27-2.081.36-.135.614-.105.913.194a123.423 123.423 0 003.16 3.07c.359.329.374.643.194 1.048-.898 1.976-1.752 3.967-2.665 5.928-.194.435-.284.809-.045 1.258.195.344.39.719.464 1.093.36 1.632 1.423 2.425 2.98 2.905 1.632.509 3.174 1.302 4.761 1.96.434.18.599.45.584.914a94.19 94.19 0 000 4.117c.015.57-.21.854-.719 1.049-2.021.763-4.027 1.572-6.063 2.32-.48.18-.794.404-.974.898-.389 1.049-1.167 2.082-1.182 3.115 0 1.003.778 2.006 1.197 3.024a92.891 92.891 0 011.498 3.818c.089.24.014.659-.15.823-1.033 1.078-2.141 2.081-3.189 3.16-.33.329-.584.359-.988.194a321.314 321.314 0 00-6.199-2.59c-.344-.135-.823-.18-1.168-.06-.943.314-1.856.704-2.769 1.123-.27.135-.554.404-.674.689a430.433 430.433 0 00-2.605 6.033c-.225.554-.569.779-1.198.749-1.392-.06-2.8-.045-4.192-.015-.479.015-.719-.15-.899-.584-.793-2.006-1.631-4.012-2.425-6.034-.195-.509-.449-.823-.973-1.003-.689-.21-1.363-.479-2.006-.808-.749-.39-1.408-.345-2.186-.015-1.872.808-3.788 1.512-5.69 2.26-.179.075-.374.12-.658.21-.105-.075-.27-.165-.405-.3-1.093-1.062-2.201-2.11-3.249-3.203-.179-.18-.254-.644-.164-.884.868-2.066 1.811-4.102 2.695-6.153.119-.285.105-.704.015-1.018-.165-.57-.524-1.093-.659-1.662-.3-1.258-1.138-1.827-2.291-2.23-1.692-.6-3.309-1.363-4.985-2.022-.554-.21-.824-.54-.779-1.243zM66.294 44.256c-.48-.6-.195-1.183.075-1.797a143.981 143.981 0 002.29-5.435c.465-1.213.15-2.26-.838-3.159-1.198-1.093-2.38-2.216-3.474-3.399-1.107-1.212-2.365-1.467-3.847-.913a347.645 347.645 0 00-5.51 2.111c-1.048.404-1.961.015-2.38-1.018-.794-1.901-1.573-3.818-2.441-5.69-.524-1.152-1.482-1.661-2.785-1.616-1.647.045-3.294.09-4.94-.015-1.692-.105-2.77.629-3.43 2.08a546.555 546.555 0 00-2.305 5.196c-.464 1.093-1.392 1.438-2.5.958-1.902-.793-3.818-1.587-5.75-2.32-1.092-.42-2.11-.195-2.964.643l-4.222 4.133c-.659.644-.943 1.467-.644 2.32a203.233 203.233 0 002.38 6.349c.39 1.003.046 1.826-.957 2.215-2.007.809-4.028 1.602-6.004 2.486-1.063.479-1.557 1.377-1.527 2.59.045 1.677.09 3.354-.015 5.015-.105 1.677.644 2.71 2.08 3.34 1.828.793 3.669 1.571 5.496 2.335.898.374 1.272 1.258.868 2.14-.18.39-.36.764-.524 1.154-.659 1.632-1.362 3.264-1.961 4.91-.345.929-.15 1.827.584 2.546 1.362 1.347 2.74 2.68 4.102 4.042.898.899 1.946 1.183 3.144.749 1.916-.689 3.833-1.422 5.734-2.141 1.303-.51 2.111-.18 2.605 1.093.24.629.465 1.257.734 1.886.554 1.258 1.093 2.516 1.692 3.743.464.928 1.212 1.497 2.305 1.497 2.067 0 4.148.045 6.214-.03.569-.03 1.198-.344 1.647-.718.449-.39.793-.973 1.048-1.527.793-1.692 1.512-3.414 2.26-5.12.375-.854 1.378-1.228 2.246-.87 2.096.84 4.192 1.693 6.319 2.471.898.33 1.751.045 2.425-.599 1.482-1.407 2.965-2.814 4.372-4.297.419-.434.599-1.093.823-1.512-.164-.733-.21-1.272-.389-1.751a234.036 234.036 0 00-2.141-5.346c-.434-1.047-.075-1.856.958-2.275 1.917-.764 3.848-1.512 5.734-2.336 1.213-.524 1.797-1.467 1.737-2.845-.06-1.646-.105-3.293 0-4.94.12-1.647-.599-2.665-2.021-3.294-1.841-.809-3.713-1.557-5.57-2.38-.254-.09-.509-.39-.733-.66zm5.33 6.572c-.03 1.423-.03 2.845 0 4.267.015.434-.12.689-.54.854-2.095.793-4.176 1.632-6.272 2.41-.465.165-.734.404-.914.869-.389 1.048-1.197 2.066-1.183 3.099 0 1.033.794 2.05 1.228 3.084.51 1.243.988 2.5 1.512 3.743.15.374.09.629-.21.913-1.062 1.018-2.125 2.037-3.143 3.085-.33.344-.644.374-1.063.194-2.037-.868-4.088-1.722-6.109-2.605-.434-.195-.808-.254-1.258-.03-1.033.48-2.35.659-3.099 1.407-.748.749-.943 2.037-1.392 3.085-.494 1.138-1.018 2.275-1.512 3.413-.21.494-.51.704-1.078.689-1.393-.045-2.8-.03-4.192 0-.525.015-.839-.15-1.019-.629a305.041 305.041 0 00-2.47-6.093c-.135-.315-.464-.614-.763-.794-.524-.284-1.138-.404-1.647-.704-1.093-.658-2.096-.494-3.22.015-1.736.794-3.563 1.408-5.344 2.111-.405.165-.66.075-.974-.24a99.15 99.15 0 00-3.099-3.038c-.344-.33-.404-.614-.21-1.049.869-1.93 1.707-3.877 2.59-5.794.255-.539.39-1.003.046-1.542a2.473 2.473 0 01-.345-.823c-.374-1.752-1.557-2.575-3.204-3.1-1.557-.493-3.024-1.257-4.551-1.886-.45-.18-.629-.45-.614-.958.03-1.392.045-2.8 0-4.192-.015-.48.15-.734.584-.899a284.912 284.912 0 006.258-2.425c.345-.135.689-.464.854-.794.419-.838.778-1.721 1.093-2.62.12-.329.104-.778-.015-1.108-.824-2.08-1.707-4.147-2.53-6.228-.09-.254-.016-.704.164-.898 1.078-1.108 2.2-2.171 3.309-3.25.105-.104.24-.164.344-.239.24.09.464.15.659.24 2.021.853 4.027 1.722 6.049 2.545.344.135.823.15 1.182.03 1.078-.374 2.351-.614 3.115-1.362.733-.72.913-1.992 1.362-3.025.539-1.227 1.108-2.455 1.647-3.683.165-.39.42-.539.868-.539 1.468.03 2.95.03 4.417 0 .45-.015.689.15.853.54.809 2.005 1.632 4.012 2.411 6.033.21.554.509.943 1.093 1.078.12.03.254.06.344.135 1.812 1.182 3.579.958 5.435-.03 1.333-.704 2.83-1.108 4.237-1.662.374-.15.614-.09.898.21a102.231 102.231 0 003.16 3.084c.329.314.404.569.224.958-.913 2.021-1.797 4.042-2.71 6.063-.194.42-.24.749-.03 1.183.42.854.719 1.752 1.138 2.605.15.315.48.63.794.764a325.72 325.72 0 006.273 2.605c.434.21.569.464.569.928z" fill="#333A40"/><path d="M135.24 66.144c7.006-.074 12.995-6.108 12.995-13.28 0-7.366-5.974-13.414-13.295-13.34-7.785.06-13.205 6.154-13.295 13.28-.09 7.486 6.094 13.415 13.595 13.34zm-.3-23.58c5.63-.06 10.241 4.611 10.271 10.285.03 5.495-4.626 10.241-10.076 10.256-5.66.015-10.376-4.237-10.481-10.166-.104-5.959 4.567-10.315 10.286-10.375zM44.614 39.51c-7.276-.015-13.295 6.018-13.295 13.31 0 7.26 5.914 13.31 13.011 13.325 7.606 0 13.58-5.824 13.595-13.266.015-7.336-5.99-13.37-13.31-13.37zM54.87 52.94c-.18 5.823-4.85 10.36-10.525 10.165-5.645-.194-10.181-4.7-10.016-10.615.18-5.899 4.895-9.986 10.36-9.911 5.81.09 10.36 4.836 10.181 10.36zM113.276 92.66a.858.858 0 01-.105-.883c.06-.15.255-.48.704-.54l14.208-1.856a1.49 1.49 0 001.288-1.677 1.498 1.498 0 00-1.677-1.287l-14.209 1.841c-1.392.18-2.53 1.063-3.084 2.35a3.87 3.87 0 00.464 3.849l8.175 10.944c.299.389.749.599 1.198.599.314 0 .629-.09.898-.299a1.503 1.503 0 00.3-2.097l-8.16-10.944z" fill="#333A40"/></svg>