<svg width="137" height="106" fill="none" xmlns="http://www.w3.org/2000/svg"><path d="M100.005 102.581H34.943c-.89 0-1.619.728-1.619 1.618 0 .89.729 1.619 1.619 1.619h65.062c.89 0 1.619-.729 1.619-1.619s-.712-1.618-1.619-1.618zM20.166 60.256c-4.079 0-7.396 3.318-7.396 7.396 0 4.079 3.317 7.396 7.396 7.396 4.078 0 7.396-3.317 7.396-7.396 0-4.078-3.318-7.396-7.396-7.396zm0 12.025a4.628 4.628 0 01-4.629-4.629 4.628 4.628 0 014.629-4.629 4.628 4.628 0 014.629 4.629 4.638 4.638 0 01-4.63 4.629zM33.729 34.684l-1.408-.631.518-1.23a1.911 1.911 0 00-.405-2.104l-1.133-1.166a1.944 1.944 0 00-2.055-.469l-1.425.518-.712-1.49a1.968 1.968 0 00-1.764-1.116h-1.489c-.858 0-1.618.55-1.861 1.392l-.389 1.279-1.764-.583a1.95 1.95 0 00-1.926.405l-1.149 1.052c-.55.501-.76 1.294-.55 2.007l.47 1.52-1.312.567a1.95 1.95 0 00-1.181 1.797v1.521a1.93 1.93 0 001.165 1.78l1.392.616-.566 1.36a1.95 1.95 0 00.388 2.087l1.1 1.165c.519.55 1.328.76 2.056.502l1.57-.55.615 1.36a1.955 1.955 0 001.764 1.132h1.635a1.92 1.92 0 001.764-1.133l.615-1.343 1.214.518c.68.291 1.456.178 2.023-.308l1.278-1.084c.615-.518.842-1.392.583-2.153l-.502-1.424 1.376-.583a1.925 1.925 0 001.181-1.796V36.48a1.869 1.869 0 00-1.116-1.796zm-1.602 2.848l-1.392.6c-.47.194-.858.598-1.052 1.068l-.114.29a2.012 2.012 0 00-.032 1.377l.502 1.408-.454.388-1.327-.566a1.966 1.966 0 00-1.424-.049l-.226.08c-.486.179-.89.551-1.117 1.02l-.664 1.441h-.599l-.615-1.36a1.907 1.907 0 00-1.052-.987l-.307-.113a1.966 1.966 0 00-1.36-.032l-1.553.534-.389-.405.567-1.376c.194-.453.194-.97.016-1.424l-.113-.324a1.975 1.975 0 00-1.036-1.1l-1.425-.631v-.454l1.36-.582c.485-.21.858-.599 1.052-1.085l.08-.21c.163-.405.179-.858.05-1.279l-.486-1.57.405-.372 1.86.615c.454.146.956.13 1.393-.064l.307-.146c.518-.227.923-.68 1.085-1.23l.388-1.279h.372l.745 1.586c.226.502.663.874 1.181 1.036l.194.065c.405.13.842.113 1.23-.032l1.49-.535.404.405-.502 1.214a1.976 1.976 0 000 1.489l.162.372c.194.453.55.826 1.004 1.036l1.392.631v.55zM72.847 52.989L69.45 51.45l-.195-.47 1.295-3.09a2.474 2.474 0 00-.502-2.655l-2.136-2.201a2.475 2.475 0 00-2.59-.599l-3.625 1.295-.13-.049-1.764-3.722a2.465 2.465 0 00-2.217-1.408H54.77a2.442 2.442 0 00-2.347 1.748l-1.003 3.35-.356.146-4.24-1.408a2.47 2.47 0 00-2.428.518l-2.153 1.958a2.424 2.424 0 00-.68 2.525l1.166 3.787-.065.162-3.35 1.44a2.422 2.422 0 00-1.473 2.25v2.865c0 .97.566 1.845 1.456 2.233l3.464 1.521.146.373-1.392 3.398a2.42 2.42 0 00.485 2.606l2.072 2.201a2.46 2.46 0 002.573.632l3.755-1.295.34.145 1.521 3.318a2.48 2.48 0 002.218 1.425h3.075c.955 0 1.829-.55 2.217-1.425l1.602-3.48.195-.064 3.253 1.392a2.394 2.394 0 002.54-.389l2.396-2.023a2.472 2.472 0 00.728-2.703l-1.262-3.528.13-.307 3.447-1.457a2.437 2.437 0 001.489-2.25v-3.042c0-.923-.567-1.797-1.44-2.185zm-1.327 5.065l-3.366 1.425a2.508 2.508 0 00-1.327 1.343l-.21.55a2.455 2.455 0 00-.033 1.732l1.23 3.431-2.088 1.764-3.188-1.36a2.417 2.417 0 00-1.78-.048l-.421.146a2.486 2.486 0 00-1.409 1.279l-1.57 3.415h-2.67L53.2 68.477a2.41 2.41 0 00-1.31-1.246l-.567-.226c-.55-.227-1.15-.227-1.716-.049l-3.674 1.262-1.796-1.91 1.36-3.317a2.458 2.458 0 00.032-1.797l-.227-.615a2.458 2.458 0 00-1.295-1.375l-3.382-1.506v-2.46l3.285-1.424a2.434 2.434 0 001.311-1.376l.146-.388c.194-.518.21-1.084.048-1.602l-1.149-3.707 1.861-1.699 4.176 1.392a2.412 2.412 0 001.748-.081l.599-.259a2.425 2.425 0 001.36-1.538l.987-3.253h2.363l1.731 3.674a2.51 2.51 0 001.49 1.295l.372.113a2.433 2.433 0 001.553-.032l3.545-1.263L67.91 47l-1.262 3.027a2.366 2.366 0 000 1.877l.29.712a2.41 2.41 0 001.263 1.295l3.334 1.505v2.638h-.016z" fill="#333A40"/><path d="M121.579 0H15.003C6.733 0 0 6.733 0 15.003v57.359c0 8.27 6.733 15.003 15.003 15.003h51.095v10.973c0 .89.729 1.619 1.619 1.619s1.618-.729 1.618-1.619V87.365h52.244c8.271 0 15.004-6.733 15.004-15.003V15.003C136.583 6.733 129.85 0 121.579 0zm11.767 15.003v35.688l-.227.194a.855.855 0 01-.89.13l-7.089-3.044a3.663 3.663 0 00-2.654-.08l-.907.323a3.664 3.664 0 00-2.071 1.894l-3.496 7.574a.87.87 0 01-.777.502h-6.474a.836.836 0 01-.777-.502l-3.334-7.234a3.608 3.608 0 00-1.942-1.845l-1.198-.486a3.54 3.54 0 00-1.343-.259c-.404 0-.793.065-1.181.194l-8.125 2.816a.857.857 0 01-.906-.226l-4.37-4.629a.881.881 0 01-.178-.922l3.042-7.38a3.584 3.584 0 00.049-2.655l-.486-1.278a3.612 3.612 0 00-1.926-2.04l-7.525-3.334a.89.89 0 01-.518-.793v-6.037c0-.34.21-.663.517-.793l7.316-3.156a3.61 3.61 0 001.942-2.023l.324-.825c.291-.761.324-1.603.08-2.38l-2.54-8.189a.87.87 0 01.243-.89l.08-.081h35.558c6.507 0 11.783 5.276 11.783 11.766zM51.338 3.723a4.628 4.628 0 01-4.629 4.628 4.628 4.628 0 01-4.629-4.629c0-.161.016-.323.033-.485h9.209c0 .162.016.324.016.485zM99.115 83.95a5.543 5.543 0 015.535-5.535c3.043 0 5.535 2.492 5.535 5.535v.194h-11.07v-.194zm22.464.194h-8.092v-.194c0-4.872-3.965-8.853-8.853-8.853-4.871 0-8.853 3.965-8.853 8.853v.194H15.003c-6.49 0-11.766-5.276-11.766-11.766V15.019c0-6.49 5.276-11.766 11.766-11.766h24.342c-.016.162-.016.324-.016.486 0 4.078 3.318 7.396 7.396 7.396 4.079 0 7.397-3.318 7.397-7.396 0-.162 0-.324-.017-.486H82.98a3.691 3.691 0 00.08 1.78l2.526 8.19a.852.852 0 01-.016.566l-.324.826a.917.917 0 01-.47.485l-7.315 3.156a3.614 3.614 0 00-2.185 3.334v6.037c0 1.44.842 2.736 2.153 3.318l7.526 3.334c.21.097.372.275.453.486l.485 1.278c.081.21.081.437-.016.632l-3.043 7.38a3.657 3.657 0 00.712 3.868l4.37 4.629a3.617 3.617 0 003.82.938l8.125-2.816a.847.847 0 01.598.017l1.198.485c.21.08.372.243.469.437l3.334 7.235a3.626 3.626 0 003.302 2.104h6.474a3.62 3.62 0 003.286-2.104l3.495-7.575a.892.892 0 01.486-.453l.906-.324a.85.85 0 01.632.017l7.088 3.042a3.617 3.617 0 002.218.21v18.597c0 6.49-5.276 11.782-11.767 11.782z" fill="#333A40"/></svg>