<svg width="106" height="92" viewBox="0 0 106 92" fill="none" xmlns="http://www.w3.org/2000/svg">
<path d="M88.4221 0C90.8191 0.427658 93.2694 0.748402 95.6664 1.33643C98.1166 1.97792 100.567 2.77978 102.911 3.79547C103.55 4.06275 104.082 5.45264 103.976 6.20105C103.71 8.07205 103.017 9.8896 102.431 11.9744C98.0101 5.07844 91.7779 2.99361 84.1608 4.0093C77.9819 4.81116 73.8272 8.28588 71.803 13.9524C69.0332 21.5433 69.193 29.3481 72.0694 36.8855C75.3186 45.3318 85.9186 49.2876 94.1216 45.3852C94.7608 45.0645 95.4 44.1023 95.4533 43.4073C95.6131 39.9326 95.6131 36.4579 95.6131 33.0366C95.6131 31.4329 95.6131 29.8826 95.6131 28.2789C99.1287 28.1185 102.538 27.9047 105.947 27.7443C105.947 28.4393 105.947 29.1877 105.947 29.8826C105.787 34.2127 105.574 38.5427 105.414 42.8727C105.254 47.6304 106.426 46.989 101.259 48.2185C93.2161 50.1429 85.0664 51.4259 76.8101 49.6084C66.4231 47.3632 59.3387 38.7565 59.2322 28.1185C59.1789 24.7507 59.3387 21.3295 60.1377 18.122C62.6412 8.12551 71.1638 1.44335 81.5508 0.748402C82.7759 0.694945 83.9478 0.267286 85.1196 0C86.2915 0 87.3568 0 88.4221 0Z" fill="#333A40"/>
<path d="M18.1106 0C20.6141 0.801859 23.1176 1.55026 25.6211 2.35212C27.4322 2.94015 27.8583 4.0093 27.0593 5.82684C26.4201 7.27019 26.1538 8.82045 25.6211 10.638C23.2774 6.14759 20.0281 3.74201 15.1276 4.0093C11.9317 4.16967 9.58794 5.77339 8.62915 8.55317C7.67035 11.2795 8.41608 14.3266 11.1327 16.0906C14.9146 18.4962 18.9628 20.5276 22.9578 22.6659C26.2603 24.3765 28.6573 26.8356 29.7759 30.4707C32.599 39.6118 26.793 48.6996 17.2583 50.2498C11.1859 51.1586 5.48643 50.3033 0 47.577C0 47.2028 0 46.882 0 46.5078C0.905528 43.6746 1.81106 40.7879 2.87638 37.527C3.46231 38.8634 3.83518 39.8791 4.26131 40.7879C6.65829 45.5991 12.7839 47.7374 17.6844 45.4921C22.798 43.14 23.4372 36.4579 18.6432 33.1435C14.808 30.4707 10.5467 28.3858 6.71156 25.713C1.49146 22.1848 -0.426131 16.8925 1.06533 11.1191C2.50352 5.45264 7.24422 1.4968 13.21 0.748402C14.1688 0.641487 15.0744 0.267286 15.9799 0C16.6724 0 17.4181 0 18.1106 0Z" fill="#333A40"/>
<path d="M0 90.3429C1.06533 84.3022 2.23719 78.315 3.19598 72.2743C4.20804 65.7525 5.0603 59.1238 6.60503 52.4417C11.8784 62.4916 17.1518 72.5416 22.6915 83.1261C28.4442 72.702 33.9307 62.7589 39.4171 52.8159C39.6302 52.8159 39.8432 52.8159 40.0563 52.8159C41.601 65.5921 43.0925 78.3684 44.6372 91.3051C42.8794 91.3051 41.3347 91.3051 39.6834 91.3051C38.8312 82.2708 37.9256 73.2365 37.0734 64.2557C36.7005 64.1488 36.3809 64.0419 36.008 63.935C31.2141 73.0762 26.4201 82.2174 21.7327 91.1982C17.0985 82.3243 12.4111 73.2365 7.67035 64.1488C7.40402 64.2023 7.13769 64.2557 6.81809 64.3092C5.8593 73.1831 4.95377 82.1105 3.99498 91.412C2.76985 91.412 1.38492 91.412 0 91.412C0 91.0378 0 90.7171 0 90.3429Z" fill="#333A40"/>
<path d="M106 90.8774C105.307 90.9843 104.615 91.0913 103.923 91.2516C100.567 91.9466 99.8211 91.6258 97.9567 88.7926C95.3467 91.1447 92.3105 92.2673 88.7417 92C85.0663 91.7328 82.8291 90.129 82.1899 86.9216C81.4442 83.1796 82.9356 79.8652 86.3447 78.6892C89.008 77.7804 91.8844 77.4597 94.601 76.7113C96.3055 76.2301 98.7025 76.5509 98.5427 73.5038C98.2763 69.6549 96.8914 67.3562 93.9618 66.9286C91.1386 66.5009 88.4753 66.982 86.3447 69.0669C85.9185 69.4945 85.5989 70.0291 85.2261 70.5102C84.9065 70.2429 84.5869 70.0291 84.2673 69.7618C84.9597 68.6927 85.4391 67.3028 86.4512 66.6613C89.6472 64.5765 93.2693 64.3092 96.9447 65.0576C100.247 65.7525 102.112 67.8374 102.325 71.4724C102.591 76.0163 102.538 80.5602 102.325 85.0506C102.218 87.9373 102.964 89.7014 106.053 89.8617C106 90.1825 106 90.5032 106 90.8774ZM98.2763 77.5131C95.3999 78.2081 92.8964 78.6892 90.4994 79.491C87.3035 80.5602 86.1316 82.8588 86.8241 86.1732C87.3035 88.5253 89.0612 89.8083 91.7246 89.7548C94.8673 89.7548 98.01 87.5631 98.2231 84.9971C98.4361 82.6985 98.2763 80.3998 98.2763 77.5131Z" fill="#333A40"/>
<path d="M50.2834 49.3946C46.7678 49.3946 43.0925 49.3946 39.3105 49.3946C39.3105 33.5712 39.3105 17.641 39.3105 1.65723C43.0392 1.65723 46.5015 1.65723 50.2834 1.65723C50.2834 17.641 50.2834 33.4109 50.2834 49.3946Z" fill="#333A40"/>
<path d="M70.0984 91.305C68.7135 91.305 67.3818 91.305 65.8904 91.305C65.8904 82.7519 65.8904 74.1987 65.8904 65.4317C67.3286 65.4317 68.607 65.4317 70.205 65.4317C70.205 66.9285 70.205 68.4253 70.205 70.6705C72.6552 67.1958 74.5728 63.9883 79.2602 65.1644C79.1537 66.5008 79.1004 67.7838 78.9939 69.2272C78.4612 69.1737 78.0351 69.1737 77.6622 69.0668C73.9869 68.3184 71.4833 69.4944 70.8974 73.183C70.205 77.62 70.3115 82.1638 70.1517 86.7077C70.0452 88.2045 70.0984 89.7013 70.0984 91.305Z" fill="#333A40"/>
<path d="M56.6754 65.3782C56.6754 74.0917 56.6754 82.538 56.6754 91.1981C55.3437 91.1981 53.9055 91.1981 52.4141 91.1981C52.4141 82.5914 52.4141 74.0383 52.4141 65.3782C53.8523 65.3782 55.1306 65.3782 56.6754 65.3782Z" fill="#333A40"/>
<path d="M54.3318 58.2683C55.8027 58.2683 56.9951 57.0717 56.9951 55.5955C56.9951 54.1193 55.8027 52.9226 54.3318 52.9226C52.8609 52.9226 51.6685 54.1193 51.6685 55.5955C51.6685 57.0717 52.8609 58.2683 54.3318 58.2683Z" fill="#333A40"/>
</svg>
