<svg width="266" height="100" viewBox="0 0 266 100" fill="none" xmlns="http://www.w3.org/2000/svg">
<path d="M0.0375977 53.2575C0.0375977 40.8996 0.0375977 28.5935 0.0375977 16.2357C0.0375977 14.9431 0.244423 13.8572 1.07172 12.668C2.26097 10.9617 3.65704 9.56561 5.36335 8.53149C6.91454 7.54907 8.62085 7.032 10.4823 6.92859C12.1886 6.87688 13.2227 7.96272 14.1534 9.15196C15.2393 10.4963 16.3768 11.8924 17.4109 13.2368C18.3933 14.4777 19.2723 15.7704 20.3065 16.9596C21.7025 18.5625 22.7367 20.5791 24.6498 21.7166C27.959 23.7848 31.2682 23.4746 34.1638 21.0961C35.0945 20.3722 35.715 19.2864 36.3354 18.1489C37.2144 16.3908 37.111 14.6845 37.111 12.9265C37.1627 9.04855 37.111 5.17058 37.111 1.34431C37.111 0.155064 37.111 0.103357 38.352 0.103357C39.2827 0.103357 40.2134 0.20677 41.0924 0.103357C43.5226 -0.206881 45.3323 0.930658 47.0903 2.37843C48.0728 3.20574 49.1069 4.03304 49.8308 5.06716C51.3303 7.23883 52.6746 9.56561 52.8297 12.306C52.9332 14.0641 53.0883 15.8221 53.6053 17.5284C54.3292 20.0103 56.0355 21.5615 58.3106 22.5439C60.9476 23.6814 63.4812 23.2161 65.8597 21.6649C66.5319 21.1995 67.1524 20.5274 67.6695 19.9069C68.9621 18.3557 70.2548 16.7528 71.5474 15.1499C73.202 13.0299 74.9083 10.91 76.5112 8.73831C77.6488 7.18712 79.1483 6.72177 80.958 7.13542C84.2155 7.8593 86.9042 9.51391 88.8173 12.3578C90.5236 14.8397 91.351 17.5284 91.351 20.5274C91.351 42.5025 91.351 64.4777 91.351 86.5046C91.351 89.0899 90.7305 91.5201 89.4378 93.6401C87.5764 96.7425 84.836 98.9141 81.1648 99.6897C80.079 99.9482 78.8897 100.052 77.8039 100.052C55.8804 100.052 33.9569 100.052 12.0852 100.052C8.36231 100.052 5.20823 98.7073 2.67462 95.9669C1.84732 95.0879 1.07172 94.1571 0.451248 93.123C0.089304 92.5025 0.0375977 91.7269 0.0375977 91.0031C0.0375977 83.2471 0.0375977 75.5429 0.0375977 67.7869C0.0375977 62.9782 0.0375977 58.1178 0.0375977 53.2575ZM78.0107 71.6132C78.0107 67.3216 78.0107 63.0816 78.0107 58.79C78.0107 57.2905 77.2351 56.5149 75.7873 56.5149C69.8411 56.5149 63.8432 56.4115 57.897 56.5667C54.4326 56.6184 51.899 58.4798 50.2444 61.5305C49.5722 62.668 48.5898 63.4953 47.1938 63.5987C46.3665 63.6504 45.4874 63.6504 44.6601 63.5987C43.2124 63.547 42.2817 62.668 41.5061 61.6339C40.989 60.9617 40.5753 60.1344 40.0066 59.5139C38.4037 57.6525 36.3354 56.6184 33.9569 56.5667C27.3902 56.4632 20.8235 56.5667 14.3085 56.5149C13.5329 56.5149 12.9125 56.7735 12.6539 57.5491C12.4471 58.1178 12.2403 58.7383 12.2403 59.3071C12.1886 64.8914 12.2403 70.4239 12.2403 76.0082C12.2403 78.7487 12.2403 81.5408 12.2403 84.2812C12.2403 85.4188 12.9125 86.7114 14.5154 86.7114C14.8773 86.7114 15.2393 86.7114 15.6012 86.7114C21.5474 86.7114 27.5454 86.7114 33.4916 86.7114C36.9042 86.7114 39.4378 88.366 41.2992 91.1582C41.6095 91.6235 41.868 92.0889 42.2299 92.5025C43.5743 93.9503 47.0903 94.4157 48.6932 93.3298C49.262 92.9679 49.8825 92.5025 50.1927 91.9338C52.0541 88.5212 54.8463 86.7114 58.7243 86.7114C64.3085 86.7114 69.8411 86.6597 75.4254 86.7114C77.1834 86.7114 78.2175 85.7807 78.1658 83.971C77.959 79.8862 78.0107 75.7497 78.0107 71.6132Z" fill="#333A40"/>
<path d="M216.79 45.8636C216.79 48.8625 216.79 51.8098 216.79 54.8087C216.79 56.0497 216.79 56.0497 215.601 56.0497C215.343 56.0497 215.084 56.0497 214.826 56.0497C214.102 56.1014 213.688 55.8429 213.791 55.0673C213.791 54.8605 213.688 54.7053 213.585 54.4985C213.43 54.6019 213.223 54.7053 213.068 54.8605C210.482 57.2389 206.346 56.9804 204.019 54.3434C203.243 53.4644 202.83 52.5337 202.571 51.4478C202.002 48.9659 201.951 46.484 203.037 44.209C204.174 41.8305 206.604 40.4344 209.655 40.8997C210.896 41.1066 212.085 41.5202 212.964 42.5544C213.119 42.7095 213.378 42.7612 213.585 42.8646C213.636 42.6578 213.74 42.4509 213.74 42.2441C213.74 40.3827 213.74 38.573 213.74 36.7115C213.74 35.574 213.791 35.5223 214.877 35.5223C217.049 35.5223 216.79 35.3672 216.79 37.3837C216.79 40.1759 216.79 43.0197 216.79 45.8636ZM205.26 48.8108C205.208 50.5688 205.518 51.603 206.759 52.9473C207.949 54.2917 210.431 54.4468 211.775 53.2576C214.205 51.1376 214.464 47.1045 212.395 44.5709C210.793 42.6061 207.018 43.1231 206.087 45.2431C205.57 46.4323 205.312 47.5699 205.26 48.8108Z" fill="#333A40"/>
<path d="M249.055 45.7082C249.055 48.7589 249.055 51.8096 249.055 54.8603C249.055 55.9978 249.004 56.0495 247.866 56.0495C247.659 56.0495 247.504 56.0495 247.297 56.0495C246.16 56.0495 246.16 56.0495 246.005 54.912C246.005 54.7568 245.953 54.6534 245.901 54.4983C245.798 54.55 245.643 54.6017 245.539 54.7051C243.213 57.0319 240.524 56.9285 237.835 55.5841C236.284 54.8085 235.25 53.3608 234.888 51.6545C234.423 49.3794 234.267 47.0526 235.095 44.7775C236.749 40.3825 242.023 39.6586 245.126 42.2956C245.333 42.4507 245.539 42.5542 245.746 42.7093C245.798 42.4507 245.901 42.1922 245.901 41.882C245.901 40.0722 245.953 38.2625 245.901 36.4528C245.901 35.7289 246.108 35.367 246.884 35.4187C249.314 35.4704 248.952 35.2636 248.952 37.4869C249.055 40.2791 249.055 42.9678 249.055 45.7082ZM246.056 49.0691C246.005 47.518 246.056 46.4321 245.384 45.3463C244.402 43.7951 243.057 43.1746 241.299 43.3815C239.8 43.5366 238.818 44.3639 238.3 45.7599C237.525 47.8799 237.525 49.9999 238.507 52.0681C239.541 54.1881 242.799 54.7051 244.454 53.0505C245.643 51.8096 246.212 50.3618 246.056 49.0691Z" fill="#333A40"/>
<path d="M119.117 76.5771C119.117 79.576 119.117 82.5233 119.117 85.5223C119.117 86.7632 119.117 86.7632 117.876 86.7632C117.669 86.7632 117.411 86.7632 117.204 86.7632C116.532 86.8149 116.118 86.6081 116.17 85.8842C116.17 85.6774 116.015 85.4189 115.963 85.212C115.756 85.3671 115.498 85.4706 115.343 85.6257C113.843 87.5905 109.655 87.5905 107.535 86.0393C105.415 84.4881 104.743 82.3682 104.536 79.9897C104.381 77.6112 104.743 75.3361 106.346 73.4747C107.276 72.3889 108.466 71.7167 109.965 71.5615C111.93 71.4064 113.791 71.6133 115.291 73.1127C115.446 73.2679 115.705 73.3196 115.911 73.4747C115.963 73.2679 116.015 73.061 116.015 72.8542C116.015 70.9928 116.015 69.1831 116.015 67.3216C116.015 66.2358 116.066 66.2358 117.152 66.2358C119.324 66.2358 119.065 66.1324 119.065 68.0972C119.117 70.8894 119.117 73.7332 119.117 76.5771ZM107.742 79.3175C107.897 80.5585 107.742 81.8511 108.776 83.0404C110.689 85.2637 113.74 85.1603 115.239 82.6267C116.325 80.817 116.222 78.9038 115.808 76.9907C115.601 76.0083 115.032 75.0776 114.102 74.5088C111.258 72.8542 108.259 74.7673 107.845 77.7146C107.742 78.2317 107.793 78.7487 107.742 79.3175Z" fill="#333A40"/>
<path d="M157.535 79.6795C157.535 80.9721 157.535 82.2648 157.535 83.5575C157.535 84.1262 157.69 84.5916 158.362 84.5916C158.931 84.5916 159.086 84.9535 158.983 85.3672C158.931 85.8842 159.293 86.7115 158.518 86.8667C157.587 87.0218 156.553 86.9184 155.57 86.8667C155.312 86.8667 155.053 86.5047 154.846 86.2462C154.329 85.4706 154.381 85.4706 153.502 86.0394C151.537 87.2286 148.176 87.7457 145.849 86.1945C144.298 85.1086 143.833 82.8853 144.557 81.179C145.539 78.8005 147.556 78.6454 149.572 78.2834C150.71 78.0766 151.847 77.9732 152.933 77.7664C153.916 77.5595 154.329 76.9908 154.381 76.2152C154.433 75.3362 153.916 74.6123 153.037 74.302C151.847 73.8884 150.606 73.8367 149.469 74.4054C148.952 74.664 148.487 75.1293 148.176 75.6464C147.866 76.2152 147.504 76.4737 146.884 76.422C146.832 76.422 146.729 76.422 146.677 76.422C146.108 76.3186 145.539 76.2152 144.919 76.1118C145.126 75.3362 145.126 74.3537 145.591 73.785C146.47 72.5957 147.814 71.8718 149.366 71.7167C151.485 71.5099 153.657 71.3031 155.519 72.6474C156.604 73.423 157.328 74.4572 157.38 75.8532C157.587 77.0425 157.535 78.3868 157.535 79.6795ZM154.226 81.0238C154.226 80.7653 154.226 80.6102 154.226 80.4034C154.174 79.421 154.226 79.421 153.243 79.6278C152.623 79.7829 152.003 79.8346 151.382 79.938C150.245 80.0931 149.055 80.1965 148.073 81.0238C147.194 81.7477 147.142 83.454 148.073 84.0228C149.469 84.9018 150.968 84.8501 152.52 84.2296C154.019 83.6092 154.278 82.3682 154.226 81.0238Z" fill="#333A40"/>
<path d="M232.044 48.7074C232.044 50.0517 232.044 51.3444 232.044 52.6888C232.044 53.4127 232.199 53.9814 233.078 54.0848C233.802 54.1883 233.543 54.8087 233.595 55.2224C233.647 55.6877 233.647 56.1531 233.026 56.3599C231.63 56.8253 230.234 56.4116 229.458 55.119C229.148 54.6536 228.89 54.9121 228.631 55.0673C227.028 56.3082 225.218 56.5667 223.305 56.4116C222.426 56.3082 221.496 55.998 220.72 55.5326C219.22 54.6019 218.703 52.6888 219.117 50.9825C219.479 49.3279 220.565 48.4489 222.064 48.0869C223.667 47.725 225.322 47.5181 226.925 47.2079C227.132 47.1562 227.287 47.1562 227.493 47.1562C228.372 46.9494 229.2 46.2255 229.251 45.5533C229.303 44.9328 228.683 43.7436 227.907 43.5885C226.511 43.2782 225.063 43.0197 223.771 43.9504C223.409 44.2089 223.047 44.6226 222.892 44.9845C222.685 45.4499 222.375 45.6567 221.909 45.6567C221.444 45.6567 220.927 45.6567 220.461 45.6567C219.531 45.6567 219.479 45.605 219.634 44.726C219.893 43.485 220.617 42.3992 221.702 41.8821C224.391 40.5378 227.183 40.331 229.975 41.727C231.268 42.3475 231.992 43.3816 231.94 44.8811C232.044 46.1221 232.044 47.4147 232.044 48.7074ZM229.045 50.2069H228.993C228.993 49.8966 229.096 49.5347 228.993 49.2244C228.941 49.0693 228.631 48.8108 228.424 48.8108C227.132 49.0176 225.839 49.2244 224.546 49.5347C223.874 49.6898 223.202 50 222.685 50.4137C221.857 51.0859 221.961 52.6371 222.685 53.2575C224.546 54.8087 228.011 53.9297 228.734 51.6546C228.993 51.2927 228.993 50.7239 229.045 50.2069Z" fill="#333A40"/>
<path d="M182.768 80.093C181.216 80.093 179.665 80.093 178.114 80.093C177.287 80.093 177.132 80.2999 177.39 81.1272C177.545 81.6442 177.752 82.1096 177.907 82.575C178.373 83.9193 179.458 84.4364 180.803 84.5915C182.613 84.7983 184.06 84.333 184.939 82.575C185.043 82.3681 185.405 82.213 185.663 82.213C186.077 82.1613 186.542 82.1613 187.008 82.213C188.093 82.213 188.249 82.4715 187.783 83.4023C185.301 88.3144 178.735 88.0558 176.098 84.9534C175.425 84.1261 174.857 83.092 174.598 82.0579C173.616 78.335 174.443 74.1985 178.321 72.182C180.441 71.0962 182.768 71.1479 184.888 72.4405C187.266 73.8366 188.352 76.06 188.404 78.8004C188.455 80.093 188.404 80.1965 187.111 80.1965C185.56 80.0931 184.164 80.093 182.768 80.093ZM181.113 77.9731C182.147 77.9731 183.181 77.9731 184.215 77.9731C184.888 77.9731 185.043 77.6629 184.939 77.0941C184.681 75.3878 183.181 73.9917 181.475 73.94C179.562 73.8883 178.373 74.7156 177.649 76.577C177.132 77.9731 177.132 78.0248 178.579 78.0248C179.407 77.9731 180.286 77.9731 181.113 77.9731Z" fill="#333A40"/>
<path d="M130.079 80.093C128.631 80.093 127.132 80.093 125.684 80.093C124.702 80.093 124.443 80.4549 124.753 81.3856C125.581 83.9709 127.339 85.1085 129.976 84.488C130.648 84.3329 131.475 83.8158 131.785 83.2471C132.354 82.3163 133.026 82.1095 134.06 82.1612C135.405 82.2129 135.56 82.3681 134.888 83.609C134.112 85.1602 132.923 86.246 131.268 86.7631C128.373 87.6938 124.34 87.2802 122.478 83.5056C121.806 82.1095 121.651 80.3515 121.651 78.8003C121.703 75.9565 122.84 73.4746 125.581 72.1819C128.683 70.7341 132.354 71.5097 134.371 74.5087C135.25 75.8531 135.612 77.4042 135.715 79.0071C135.767 80.0413 135.663 80.1447 134.629 80.1447C133.078 80.093 131.578 80.093 130.079 80.093ZM128.528 77.973C129.614 77.973 130.751 77.973 131.837 77.973C132.199 77.973 132.509 77.9213 132.406 77.4042C132.147 76.0082 131.527 74.8189 130.131 74.2502C127.649 73.216 125.529 74.457 124.65 77.094C124.443 77.6628 124.702 77.9213 125.27 77.9213C126.408 77.973 127.494 77.973 128.528 77.973Z" fill="#333A40"/>
<path d="M165.032 49.4311C163.585 49.4311 162.137 49.4311 160.741 49.4311C159.758 49.4311 159.655 49.5862 159.758 50.5687C159.862 52.1198 160.689 53.2057 162.085 53.7744C163.533 54.3432 164.981 54.1364 166.273 53.2057C166.428 53.1023 166.583 52.8954 166.739 52.6886C166.997 52.3267 167.152 51.7579 167.462 51.7062C168.238 51.5511 169.065 51.6028 169.893 51.6545C169.996 51.6545 170.203 52.1198 170.1 52.3267C169.376 54.1364 168.186 55.4808 166.325 56.1012C163.533 56.9802 160.844 56.8251 158.621 54.6535C157.431 53.4642 156.552 52.0681 156.501 50.3101C156.449 49.3794 156.501 48.4487 156.501 47.5697C156.501 45.1912 158.983 41.882 161.413 41.2098C164.412 40.4342 167.462 41.3132 169.169 43.7434C170.151 45.1395 170.513 46.8458 170.565 48.5521C170.617 49.2243 170.255 49.5345 169.582 49.5345C168.083 49.4311 166.532 49.4311 165.032 49.4311ZM163.378 47.4146C164.36 47.4146 165.343 47.4146 166.377 47.4146C166.945 47.4146 167.204 47.156 167.152 46.5873C167.049 45.6048 166.687 44.7775 165.911 44.1054C165.032 43.3815 164.05 43.3298 163.016 43.3815C161.413 43.4849 160.017 44.7775 159.81 46.3804C159.707 47.0526 159.913 47.4146 160.637 47.4146C161.516 47.4146 162.447 47.4146 163.378 47.4146Z" fill="#333A40"/>
<path d="M260.12 49.4312C258.621 49.4312 257.121 49.4312 255.57 49.4312C254.639 49.4312 254.536 49.5864 254.743 50.4654C255.312 53.4126 257.845 54.8087 260.482 53.6194C260.999 53.4126 261.516 52.9473 261.775 52.4819C262.189 51.758 262.706 51.4478 263.481 51.5512C264.05 51.6546 264.67 51.7063 265.239 51.8097C264.981 52.3785 264.774 52.999 264.412 53.5677C262.344 56.9804 257.173 57.0838 254.691 55.4292C253.709 54.757 252.985 53.9297 252.416 52.8439C251.64 51.4478 251.434 50.0517 251.434 48.5005C251.434 46.122 252.364 44.1572 254.019 42.5543C256.501 40.1241 260.999 39.969 263.791 43.1231C265.136 44.6743 265.705 46.5357 265.549 48.6556C265.498 49.3278 265.187 49.4312 264.619 49.4312C263.171 49.4312 261.62 49.4312 260.12 49.4312ZM258.621 47.4147C259.345 47.4147 260.017 47.4147 260.741 47.4147C262.809 47.4147 262.809 47.4147 261.982 45.5533C261.206 43.7952 259.913 43.1231 257.742 43.3816C256.397 43.5367 255.053 44.9845 254.795 46.484C254.691 47.1045 254.846 47.4147 255.518 47.4147C256.553 47.4147 257.587 47.4147 258.621 47.4147Z" fill="#333A40"/>
<path d="M204.846 79.3174C205.105 76.5252 205.88 74.1468 208.311 72.5439C210.017 71.458 211.878 71.3546 213.843 71.5614C217.307 71.9234 219.634 74.8189 219.686 77.7145C219.738 79.1106 219.789 80.5066 219.531 81.851C218.962 84.7466 216.687 86.8665 213.171 87.0733C210.017 87.2802 207.38 86.246 205.932 83.2988C205.312 82.1095 205.208 80.6618 204.846 79.3174ZM216.79 79.3174C216.945 77.9213 216.48 76.7838 215.705 75.6462C214.981 74.6121 214.102 74.0434 212.912 73.9399C210.844 73.7331 209.19 74.8189 208.569 76.8872C207.793 79.3691 207.897 81.7476 209.913 83.7124C211.154 84.9534 213.895 85.0051 215.187 83.5056C216.273 82.3681 217.152 80.972 216.79 79.3174Z" fill="#333A40"/>
<path d="M188.093 56.5149C186.232 56.5149 184.681 56.2563 183.285 55.3256C182.25 54.6534 181.733 53.5676 181.32 52.4818C181.061 51.7062 181.32 51.4476 182.147 51.3959C182.561 51.3959 182.974 51.3959 183.336 51.3959C184.06 51.3442 184.526 51.4994 184.681 52.3267C184.888 53.3091 185.767 53.7227 186.646 53.9296C187.783 54.1881 188.972 54.1881 190.11 53.671C190.834 53.3608 191.144 52.8437 191.144 52.1198C191.144 51.4476 190.885 50.7755 190.162 50.5686C189.127 50.2067 188.042 49.9482 187.007 49.5862C185.767 49.1726 184.474 48.8623 183.285 48.2936C181.785 47.6214 181.578 46.1736 181.63 44.7258C181.682 43.278 182.509 42.1922 183.802 41.6751C186.335 40.5893 188.972 40.4342 191.454 41.7786C192.54 42.3473 193.367 43.278 193.678 44.519C193.781 45.0361 193.729 45.398 193.057 45.3463C192.85 45.3463 192.592 45.2946 192.385 45.3463C191.299 45.5531 190.524 45.2946 189.903 44.3122C189.645 43.8985 188.972 43.64 188.404 43.5366C187.68 43.4332 186.956 43.4849 186.18 43.5366C185.405 43.5883 184.836 44.0019 184.681 44.7775C184.526 45.5531 184.939 46.1736 185.715 46.3804C187.318 46.8458 188.972 47.2594 190.575 47.7248C191.971 48.1384 193.471 48.6038 193.936 50.2067C194.712 52.9988 193.833 54.8086 191.247 55.8944C190.627 56.1529 190.006 56.308 189.334 56.4115C188.921 56.5149 188.352 56.4632 188.093 56.5149Z" fill="#333A40"/>
<path d="M120.462 48.5523C120.462 46.4323 120.462 44.3641 120.462 42.2441C120.462 41.4685 120.72 41.1583 121.496 41.21C121.754 41.21 122.013 41.21 122.271 41.21C123.409 41.21 123.409 41.21 123.512 42.3475C123.512 42.5026 123.512 42.6577 123.564 42.7612C123.616 42.8646 123.667 43.0197 123.719 43.1231C123.823 43.0714 123.978 42.968 124.029 42.8646C124.805 41.6753 125.994 41.1066 127.339 40.848C129.769 40.4344 132.147 41.21 133.233 43.8987C133.388 44.3124 133.44 44.8294 133.44 45.2948C133.44 48.5006 133.44 51.7064 133.44 54.9121C133.44 55.9463 133.388 55.998 132.406 55.998C130.079 55.998 130.389 56.1531 130.389 53.9814C130.389 51.7581 130.389 49.483 130.389 47.2596C130.389 46.7425 130.338 46.2255 130.234 45.7084C129.717 43.7436 129.045 43.2782 127.132 43.2782C125.425 43.3299 124.288 44.2089 123.926 45.8635C123.771 46.5357 123.719 47.2596 123.719 47.9318C123.667 50.2069 123.719 52.482 123.719 54.757C123.719 55.8429 123.667 55.8946 122.633 55.8946C120.203 55.8946 120.565 56.1014 120.513 53.878C120.462 52.2234 120.462 50.362 120.462 48.5523Z" fill="#333A40"/>
<path d="M117.566 48.6557C117.566 50.7756 117.566 52.9473 117.566 55.0673C117.566 55.8429 117.307 56.1531 116.532 56.1014C116.222 56.1014 115.963 56.1014 115.653 56.1014C114.877 56.1531 114.36 55.998 114.464 55.0156C114.464 54.8087 114.36 54.6019 114.257 54.4468C114.05 54.5502 113.843 54.6019 113.74 54.757C111.93 56.8253 109.707 56.877 107.328 56.0497C105.984 55.5843 105.312 54.4985 104.898 53.2575C104.691 52.5854 104.639 51.8098 104.588 51.0859C104.536 48.1903 104.588 45.2948 104.588 42.3475C104.588 41.2617 104.639 41.21 105.725 41.2617C108.104 41.2617 107.793 41.0031 107.793 43.2782C107.793 45.9152 107.793 48.5523 107.845 51.241C107.845 52.8439 108.466 53.6195 109.707 53.9814C111.051 54.3951 112.757 53.8263 113.533 52.7922C114.205 51.8615 114.515 50.8273 114.515 49.6898C114.515 47.2596 114.515 44.8294 114.515 42.3992C114.515 41.3134 114.567 41.2617 115.601 41.2617C117.876 41.2617 117.566 41.1066 117.618 43.1748C117.566 44.9845 117.566 46.7943 117.566 48.6557Z" fill="#333A40"/>
<path d="M166.273 86.7632C164.515 86.7632 164.464 86.7632 163.843 85.0569C163.016 82.8335 162.292 80.5584 161.465 78.3351C160.844 76.6287 160.172 74.9224 159.552 73.1644C159.448 72.9059 159.396 72.6991 159.345 72.4405C159.241 72.0269 159.345 71.8201 159.81 71.8201C160.534 71.8201 161.31 71.7684 162.033 71.8718C162.292 71.8718 162.654 72.182 162.706 72.3888C163.636 75.1293 164.464 77.818 165.343 80.5584C165.601 81.334 165.911 82.0579 166.222 82.8335C166.273 82.9369 166.429 82.9886 166.532 83.092C166.584 82.9886 166.687 82.9369 166.687 82.8335C166.739 82.7301 166.739 82.6267 166.79 82.5233C167.463 80.2999 168.135 78.1282 168.807 75.9049C169.117 74.9224 169.427 73.94 169.686 72.9576C169.893 72.2337 170.255 71.8718 171.082 71.8718C173.667 71.9752 173.357 71.5098 172.582 73.9917C171.858 76.3185 171.03 78.5936 170.203 80.8687C169.583 82.6784 168.91 84.4364 168.238 86.2461C168.083 86.7115 167.825 86.9183 167.359 86.8666C166.997 86.7115 166.635 86.7632 166.273 86.7632Z" fill="#333A40"/>
<path d="M148.435 56.0497C146.418 55.998 146.884 56.3599 146.108 54.4468C145.643 53.3092 145.539 51.9649 144.919 50.9307C143.885 49.1727 143.885 47.0528 142.695 45.3465C142.54 45.1396 142.54 44.8811 142.437 44.6226C142.178 43.7436 141.92 42.8645 141.61 41.9855C141.403 41.4685 141.506 41.2099 142.075 41.2099C142.799 41.2099 143.574 41.1582 144.298 41.2617C144.557 41.2617 144.867 41.5719 144.97 41.8304C145.798 44.1055 146.573 46.3806 147.349 48.7074C147.711 49.7415 147.969 50.8273 148.331 51.8615C148.383 52.0683 148.538 52.2234 148.642 52.4302C148.797 52.2234 148.952 52.0683 149.055 51.8615C149.831 49.4313 150.555 46.9493 151.33 44.4674C151.589 43.5884 151.899 42.7094 152.261 41.8821C152.364 41.6236 152.675 41.3651 152.933 41.3134C153.605 41.2617 154.329 41.2617 155.053 41.3134C155.467 41.3134 155.57 41.5202 155.415 41.8821C155.105 42.7611 154.846 43.6401 154.536 44.5192C153.812 46.5357 153.037 48.5522 152.313 50.6205C151.796 52.12 151.175 53.5678 150.71 55.0672C150.451 55.8945 150.038 56.3082 149.159 56.1531C148.9 56.0497 148.642 56.0497 148.435 56.0497Z" fill="#333A40"/>
<path d="M172.53 48.759C172.53 46.7425 172.53 44.7259 172.53 42.6577C172.53 41.2099 172.53 41.2099 174.029 41.2099C174.081 41.2099 174.081 41.2099 174.133 41.2099C175.477 41.2099 175.632 41.0548 175.632 42.6577C175.632 42.8645 175.736 43.123 175.787 43.3298C175.942 43.1747 176.098 43.0713 176.253 42.8645C177.08 41.6752 178.269 41.0548 179.665 40.7962C180.855 40.5894 181.113 40.8479 181.165 42.0372C181.165 42.0889 181.165 42.1923 181.165 42.244C181.165 43.7435 181.165 43.7435 179.665 43.8469C177.39 43.9503 175.942 45.8634 175.736 48.1385C175.632 49.3795 175.684 50.6204 175.684 51.9131C175.684 52.9989 175.684 54.033 175.684 55.1189C175.684 55.7393 175.529 56.0496 174.805 56.0496C172.53 56.153 172.53 56.2047 172.53 53.9296C172.53 52.2233 172.53 50.4653 172.53 48.759Z" fill="#333A40"/>
<path d="M196.625 79.2657C196.625 77.1458 196.625 74.9741 196.625 72.8541C196.625 71.82 196.677 71.82 197.711 71.7683C197.762 71.7683 197.762 71.7683 197.814 71.7683C199.727 71.7683 199.52 71.7166 199.572 73.3712C199.572 73.4229 199.572 73.5263 199.572 73.578C199.624 73.7848 199.727 73.94 199.779 74.1468C199.882 73.9917 200.038 73.8883 200.141 73.7331C200.71 72.9058 201.33 72.1302 202.313 71.82C203.037 71.6132 203.812 71.5615 204.588 71.5098C204.795 71.5098 205.156 71.7166 205.156 71.8717C205.208 72.6473 205.208 73.4229 205.156 74.1985C205.156 74.3019 204.743 74.457 204.484 74.457C203.812 74.5604 203.088 74.5087 202.468 74.7673C201.02 75.2843 200.296 76.4736 199.986 77.9213C199.779 78.9038 199.779 79.8862 199.727 80.8686C199.676 82.5232 199.676 84.1778 199.727 85.8324C199.727 86.5563 199.469 86.8148 198.745 86.8148C196.263 86.7631 196.625 87.0217 196.573 84.6949C196.625 82.8334 196.625 81.0237 196.625 79.2657Z" fill="#333A40"/>
<path d="M193.574 79.3173C193.574 81.4372 193.574 83.6089 193.574 85.7289C193.574 86.4527 193.368 86.8147 192.592 86.763C189.955 86.7113 190.369 87.0215 190.317 84.5396C190.317 80.6616 190.317 76.7837 190.317 72.9574C190.317 71.7681 190.317 71.7681 191.454 71.7681C193.885 71.7681 193.523 71.4579 193.523 73.7847C193.574 75.6461 193.574 77.4558 193.574 79.3173Z" fill="#333A40"/>
<path d="M139.645 48.7588C139.645 50.8788 139.645 52.9471 139.645 55.067C139.645 55.7909 139.438 56.1011 138.611 56.1011C136.18 56.0494 136.491 56.2563 136.491 54.0846C136.491 50.2066 136.491 46.3803 136.491 42.5024C136.491 41.2614 136.491 41.2614 137.732 41.2614C139.852 41.2614 139.593 41.1063 139.593 43.1746C139.645 44.9843 139.645 46.8974 139.645 48.7588Z" fill="#333A40"/>
<path d="M196.47 48.6039C196.47 46.484 196.47 44.364 196.47 42.1923C196.47 41.4167 196.728 41.1582 197.504 41.1582C199.883 41.2099 199.572 41.0031 199.572 43.2265C199.572 47.0527 199.572 50.879 199.572 54.7053C199.572 55.9979 199.572 56.0496 198.331 56.0496C196.211 56.0496 196.47 56.153 196.47 54.2399C196.47 52.3785 196.47 50.517 196.47 48.6039Z" fill="#333A40"/>
<path d="M197.918 38.5212C197.711 38.5212 197.452 38.5212 197.245 38.5212C197.142 38.5212 196.987 38.5212 196.935 38.4695C196.056 38.0559 196.573 37.2286 196.47 36.6081C196.418 36.1944 196.263 35.574 196.987 35.4705C197.194 35.4188 197.452 35.4705 197.659 35.4188C199.624 35.3671 199.624 35.3671 199.572 37.2803C199.572 38.3661 199.521 38.4178 198.486 38.4178C198.28 38.5212 198.124 38.5212 197.918 38.5212Z" fill="#333A40"/>
<path d="M138.145 35.4705C138.352 35.4705 138.61 35.4705 138.817 35.4705C139.438 35.4188 139.696 35.6774 139.696 36.2978C139.645 38.8314 139.955 38.4178 137.576 38.5212C136.904 38.5212 136.49 38.3144 136.594 37.5905C136.594 37.3837 136.594 37.2286 136.594 37.0217C136.542 35.4705 136.542 35.4705 138.145 35.4705Z" fill="#333A40"/>
<path d="M191.972 69.1313C191.816 69.1313 191.661 69.1313 191.558 69.1313C190.42 69.1313 190.369 69.0796 190.369 67.9938C190.317 66.1841 190.317 66.1841 192.127 66.1841C193.574 66.1841 193.574 66.1841 193.574 67.6319C193.574 67.8387 193.574 67.9938 193.574 68.2006C193.626 68.9245 193.316 69.2348 192.644 69.183C192.385 69.0796 192.178 69.1313 191.972 69.1313Z" fill="#333A40"/>
<path d="M189.386 52.9988V53.1022L189.334 53.0505L189.386 52.9988Z" fill="#333A40"/>
</svg>
