<svg width="285" height="69" viewBox="0 0 285 69" fill="none" xmlns="http://www.w3.org/2000/svg">
<path d="M0 2.10012C1.14 0.215267 2.85 -0.142617 4.91625 0.0482545C7.6 0.310703 10.2837 0.310703 12.9675 0.406138C16.8387 0.525433 20.71 0.549292 24.5812 0.668586C32.965 0.954894 41.325 1.28892 49.7088 1.57523C51.015 1.62294 52.3213 1.57523 53.6275 1.6468C56.3587 1.78996 57.76 3.46008 57.5462 6.20386C56.9525 14.1966 56.3825 22.2132 55.7887 30.2059C55.195 38.0078 54.5775 45.8097 53.9837 53.6115C53.865 55.3055 53.77 57.0234 53.675 58.7173C53.5088 61.819 52.1075 63.2744 49.0438 63.1551C44.5788 62.9642 40.1375 62.6063 35.6725 62.3439C32.1575 62.1292 28.6425 61.8906 25.1275 61.7474C22.8475 61.652 20.7812 62.3916 18.905 63.7516C16.9812 65.1354 15.0337 66.5192 13.0862 67.8792C12.635 68.1893 12.16 68.5234 11.6612 68.7381C10.26 69.3584 9.12 68.8574 8.6925 67.3781C8.38375 66.3045 8.24125 65.207 8.09875 64.1095C5.5575 45.07 2.96875 26.0068 0.40375 6.94348C0.30875 6.27543 0.1425 5.63124 0 4.96319C0 4.00884 0 3.05448 0 2.10012ZM52.725 9.16236C52.7487 6.75261 52.4162 6.4663 50.1125 6.96734C42.5363 8.56589 34.9362 10.1644 27.36 11.7868C24.035 12.5026 23.94 12.6935 24.32 16.1053C25.555 27.6292 26.79 39.1769 28.025 50.7246C28.31 53.4207 29.3312 54.7329 31.92 55.3055C37.1687 56.4746 42.4412 57.5483 47.7137 58.6458C48.9725 58.9082 49.5425 58.4788 49.6137 57.2142C50.0412 51.0348 50.4212 44.8553 50.825 38.6758C51.0863 34.4767 51.3475 30.2775 51.6087 26.0783C51.965 20.3999 52.345 14.7692 52.725 9.16236Z" fill="#333A40"/>
<path d="M285 28.5831C284.62 29.5375 284.216 30.4918 283.86 31.4462C283.195 33.3072 282.791 33.4504 280.963 32.7823C279.561 32.2574 278.089 31.9472 276.64 31.5655C276.45 31.5178 276.26 31.5178 276.046 31.4939C274.503 31.4223 273.363 32.0188 273.125 32.997C272.864 33.9991 273.41 34.8103 274.978 35.5738C276.355 36.2418 277.78 36.8622 279.205 37.4587C284.383 39.6775 284.881 44.0914 282.411 48.8871C280.678 52.2273 277.519 53.4918 274.028 54.0406C270.18 54.6609 266.451 54.0883 262.818 52.8238C261.298 52.2989 261.013 51.774 261.488 50.2232C261.82 49.0779 262.2 47.9566 262.604 46.8352C263.031 45.6184 263.506 45.4275 264.813 45.7138C266.855 46.1672 268.898 46.5966 270.964 47.0022C271.154 47.0499 271.368 47.0499 271.558 47.0499C273.078 47.0977 274.146 46.5489 274.336 45.5468C274.598 44.2107 273.6 43.5904 272.698 43.0655C271.32 42.2782 269.871 41.6578 268.47 40.8705C266.57 39.8207 264.836 38.58 264.171 36.3373C263.221 33.2118 264.86 28.8694 267.568 26.7699C271.985 23.3819 280.559 23.3342 285 26.8892C285 27.4618 285 28.0105 285 28.5831Z" fill="#333A40"/>
<path d="M141.407 64.8484C140.505 64.8484 139.579 64.8723 138.676 64.8484C137.085 64.8007 136.681 64.4189 136.824 62.8204C137.085 60.0528 137.465 57.2851 137.797 54.5413C138.795 46.3339 139.816 38.1264 140.814 29.9189C141.17 26.9604 141.835 26.1015 144.709 25.4335C148.794 24.503 152.926 23.7872 157.177 24.3121C163.091 25.0517 166.44 28.8214 166.511 34.81C166.559 39.3432 165.941 43.7094 163.542 47.6461C160.93 51.893 157.035 54.0165 152.071 54.1357C150.931 54.1596 149.767 54.1596 148.627 54.0642C147.701 53.9926 147.321 54.3028 147.226 55.2094C146.941 57.6907 146.609 60.1721 146.276 62.6534C146.015 64.6337 145.754 64.8484 143.782 64.8723C142.975 64.8484 142.191 64.8484 141.407 64.8484ZM156.964 36.9812C156.987 32.8059 155.111 30.9687 151.739 31.4936C150.67 31.6606 150.005 32.2094 149.886 33.3308C149.767 34.2374 149.649 35.144 149.53 36.0507C149.197 38.8422 148.841 41.6337 148.509 44.449C148.295 46.2623 148.77 46.7395 150.599 46.6918C152.427 46.644 153.852 45.8806 154.897 44.3536C156.489 42.0154 156.75 39.3432 156.964 36.9812Z" fill="#333A40"/>
<path d="M198.906 52.275C197.149 53.7781 194.75 54.2076 192.185 54.136C188.005 54.0167 185.013 51.9648 183.896 47.9327C182.21 41.7771 183.16 35.9317 186.675 30.6111C189.43 26.4597 193.586 24.6941 198.384 24.3362C201.709 24.0738 204.939 24.551 208.074 25.72C209.997 26.4358 210.473 27.1993 210.235 29.2512C209.57 34.9057 208.834 40.5364 208.24 46.191C208.026 48.1951 208.098 50.247 208.098 52.2512C208.098 53.5395 207.765 54.0406 206.483 54.0883C204.82 54.1599 203.134 54.2792 201.519 54.0406C200.664 53.8736 199.951 52.9908 198.906 52.275ZM192.684 41.801C192.921 42.9223 193.04 44.0676 193.444 45.1173C194.014 46.6205 195.32 47.1692 197.054 46.8829C198.313 46.6682 198.716 46.191 198.954 44.4016C199.429 40.7512 199.904 37.0769 200.355 33.4026C200.545 31.9234 199.927 31.3269 198.455 31.47C196.389 31.6848 195.13 32.997 194.299 34.7864C193.254 37.0053 192.898 39.3673 192.684 41.801Z" fill="#333A40"/>
<path d="M117.539 53.611C116.541 53.611 115.567 53.6349 114.57 53.611C113.145 53.5394 112.694 53.0384 112.836 51.5353C113.216 47.9803 113.667 44.4253 114.071 40.8942C114.332 38.723 114.594 36.5519 114.807 34.3807C115.045 32.0664 113.786 30.8496 111.459 31.1359C111.055 31.1836 110.675 31.2313 110.295 31.3029C108.585 31.5892 108.252 31.971 108.062 33.6888C107.35 39.6774 106.614 45.666 105.877 51.6784C105.687 53.2054 105.26 53.611 103.74 53.6587C101.911 53.6826 100.106 53.7064 98.2775 53.6587C96.7812 53.6349 96.33 53.0861 96.4962 51.6546C97.375 44.2822 98.3012 36.9098 99.18 29.5374C99.3462 28.0581 100.082 27.0322 101.412 26.5788C106.709 24.6701 112.147 23.4772 117.824 24.36C122.217 25.028 124.545 27.6764 124.379 32.138C124.236 36.027 123.619 39.8683 123.191 43.7334C122.906 46.3102 122.574 48.8631 122.265 51.416C122.027 53.3486 121.695 53.6349 119.795 53.6826C119.059 53.6349 118.299 53.6349 117.539 53.611Z" fill="#333A40"/>
<path d="M75.7151 26.4356C76.5938 26.4356 77.4488 26.4117 78.3276 26.4356C79.9426 26.4833 80.3939 26.9366 80.2039 28.559C79.8239 31.8754 79.3963 35.1918 78.9688 38.4843C78.7313 40.3453 78.4938 42.1825 78.2563 44.0435C78.0901 45.475 78.3038 46.7873 79.5388 47.6462C80.8926 48.6005 82.4364 48.4574 83.8376 47.837C84.2651 47.6462 84.6214 46.9304 84.6926 46.4055C85.4526 40.5839 86.1889 34.7385 86.8776 28.8931C87.1389 26.698 87.4001 26.4117 89.5851 26.3879C91.1289 26.3879 92.6726 26.3879 94.2164 26.3879C96.2351 26.3879 96.5676 26.7696 96.3064 28.8215C95.8551 32.6389 95.3564 36.4802 94.8814 40.2976C94.4301 43.9242 93.9551 47.5507 93.5276 51.1773C93.4089 52.3225 92.8864 52.9429 91.7939 53.2769C87.6851 54.5414 83.4814 55.3526 79.1826 55.3765C77.2113 55.4003 75.1451 54.947 73.3163 54.2074C69.8963 52.7997 68.1863 49.4833 68.6376 45.5466C69.3026 39.7727 70.0388 34.0227 70.7751 28.2727C70.9651 26.7219 71.3688 26.3879 72.9363 26.364C73.9101 26.4117 74.8126 26.4356 75.7151 26.4356Z" fill="#333A40"/>
<path d="M250.562 47.169C252.7 46.835 254.529 46.5725 256.358 46.2385C257.711 45.9999 258.067 46.2624 258.162 47.6462C258.234 48.7914 258.353 49.9366 258.353 51.0819C258.353 51.9408 257.972 52.6565 257.094 52.8713C252.486 54.0165 247.855 54.8516 243.129 53.7779C237.999 52.6327 234.935 49.2924 234.507 44.0435C234.009 37.9356 235.647 32.4719 240.184 28.1057C244.292 24.1451 252.463 22.7613 257.426 25.1711C260.371 26.6026 261.844 29.3464 261.416 32.5912C260.68 38.4366 256.452 42.6358 250.491 43.2323C248.591 43.4231 246.644 43.0653 244.72 42.9937C244.387 42.9698 244.055 43.0175 243.699 43.0175C243.746 43.3993 243.627 43.9003 243.841 44.115C244.459 44.807 245.076 45.6897 245.884 45.976C247.428 46.6202 249.137 46.835 250.562 47.169ZM246.192 37.6254C246.43 37.6254 246.667 37.6493 246.905 37.6254C249.161 37.3868 251.299 36.8142 252.653 34.7624C253.223 33.8796 253.603 32.8775 253.033 31.8516C252.439 30.8018 251.37 30.6586 250.325 30.7779C247.689 31.0642 245.765 32.448 244.53 34.7862C243.271 37.1244 243.604 37.6493 246.192 37.6254Z" fill="#333A40"/>
<path d="M224.057 54.2313C221.73 54.2313 219.474 53.9212 217.336 52.9429C214.177 51.4876 212.23 48.9824 211.589 45.666C210.449 39.749 211.422 34.1898 215.175 29.3226C217.17 26.722 219.949 25.3143 223.084 24.5985C227.121 23.6681 231.111 24.0975 235.006 25.3382C236.645 25.8631 236.835 26.5311 235.909 27.9627C235.267 28.9647 234.602 29.9668 234.08 31.0166C233.557 32.0187 232.916 32.2811 231.776 32.138C229.876 31.8755 227.929 31.6131 226.029 31.7562C223.725 31.9232 222.3 33.5456 221.516 35.6691C220.614 38.1027 220.471 40.6317 220.709 43.1847C220.922 45.2842 222.015 46.7158 224.081 46.8828C226.171 47.0737 228.309 46.8112 230.422 46.5488C232.346 46.3102 232.702 46.4772 232.75 48.3859C232.821 52.3942 232.204 53.1815 228.285 53.8019C226.884 54.0405 225.459 54.0882 224.057 54.2313Z" fill="#333A40"/>
<path d="M176.391 14.5061C177.175 14.5061 177.982 14.5061 178.766 14.5061C180.714 14.53 181.141 15.0071 180.927 16.9874C180.619 19.7551 180.286 22.4988 179.93 25.2665C179.194 31.2551 178.457 37.2437 177.721 43.2561C177.436 45.6897 177.745 46.143 179.954 46.9781C180.381 47.1451 180.809 47.5746 180.999 47.9802C181.45 49.0061 181.711 50.0798 182.091 51.1295C182.447 52.0839 182.091 52.6804 181.212 53.0144C178.457 54.0403 175.607 54.5175 172.71 53.9449C169.718 53.3723 167.889 51.2488 167.96 48.1472C168.031 44.9024 168.364 41.6576 168.72 38.4127C169.528 31.3982 170.43 24.3837 171.285 17.3453C171.618 14.7208 171.831 14.5061 174.467 14.5061C175.109 14.5061 175.75 14.5061 176.391 14.5061Z" fill="#333A40"/>
<path d="M133.38 25.0041C134.377 25.0041 135.351 24.9802 136.349 25.0041C137.916 25.0518 138.272 25.4574 138.082 26.9605C137.299 33.5217 136.515 40.0591 135.731 46.6203C135.517 48.3143 135.327 50.0082 135.114 51.7022C134.947 53.1099 134.52 53.5632 133.166 53.5871C131.195 53.6348 129.2 53.6348 127.229 53.5871C125.827 53.5394 125.4 52.9906 125.542 51.6068C126.516 43.3277 127.514 35.0248 128.511 26.7458C128.677 25.2665 129.01 25.0279 130.506 24.9802C130.577 24.9802 130.672 24.9802 130.744 24.9802C131.646 24.9802 132.525 24.9802 133.38 25.0041Z" fill="#333A40"/>
</svg>
